@startuml
'https://plantuml.com/class-diagram

Sensor_Value --|> Sensor : extends >
DomainId --|> ValueObject : extends >
SR001 ..|> Sensor_Value : implements >
SR001 ..|> AggregateRoot : implements >
SR001Value ..|> ValueObject : implements >
SR001Value ..|> Value : implements >
DeviceId ..|> DomainId : implements >
SensorId ..|> DomainId : implements >
SensorModelId ..|> DomainId : implements >
SR001 -- SR001Value : uses >
SR001 -- DeviceId : contains >
SR001 -- SensorId : contains >
SR001 -- SensorModelId : contains >
AggregateRoot --|> DomainEntity : extends >

interface DomainEntity{
}

interface ValueObject{
}

interface DomainId {
}

interface Sensor{
}

interface Sensor_Value{
+ getValue()
}

interface AggregateRoot{
}

interface Value{
}

class SR001{
- _sensorValue: SR001Value
- _sensorID: SensorId
- _deviceID: DeviceId
- _sensorModelID: SensorModelId
- _sensorData: Map <Integer, Double>

# SR001(device id: Device id, sensorModelID: SensorModelID, sensorID:SensorId): SR001
- areConstructorArgumentsValid(sensorID: SensorID, deviceID: DeviceID, sensorModelID: SensorModelID): boolean
+ identity(): SensorId
+ sameAs (object : Object): boolean
+ equals (object : Object): boolean
- setData(): Map <Integer, Double>
+ setValue(Integer readingNumber): void
+ getValue(): Value
}


class SR001Value {

- _solarIrradianceValue: Double
# SR001Value (value): SR001Value
+ areConstructorArgumentsValid(Double solarIrradianceValue): boolean
+ toString(): String
}

class DeviceId{
- _id: String
# DeviceId(String id): DeviceId
+ equals (object : Object): boolean
+ hashCode(): int
+ toString(): String
}

class SensorModelId{
- _id: String
# SensorModelId(String id): SensorModelId
+ equals (object : Object): boolean
+ toString(): String
}

class SensorId{
- _id: String
# SensorId(String id): SensorId
+ equals (object : Object): boolean
+ toString(): String
}


@enduml